#N canvas 627 211 617 538 10;
#X obj 130 2 adc~;
#X obj 93 383 dac~;
#N canvas 1195 73 450 455 GUI 0;
#X obj 13 249 Timestretch_guitar;
#X obj 107 134 tgl 15 0 empty vibrato Vibrato 17 7 0 10 -261234 -1
-1 1 1;
#X obj 174 109 tgl 15 0 empty portamento Portamento 17 7 0 10 -204800
-1 -1 0 1;
#X obj 109 178 hsl 138 15 0 10 0 1 empty speed_ctrl Vibrato_Speed -2
-8 0 10 -261234 -1 -1 6850 1;
#X obj 107 109 tgl 15 0 empty synth_on_off On/Off 17 7 0 10 -4034 -1
-1 1 1;
#X obj 91 20 inlet~;
#X obj 105 401 outlet~;
#X obj 109 216 hsl 138 15 30 70 0 0 empty sensitivity Sensitivity -2
-8 0 10 -262130 -1 -1 6850 1;
#X obj 88 359 *~;
#X obj 206 360 *~;
#X obj 221 339 line~;
#X obj 103 336 line~;
#X obj 221 318 pack 0 5;
#X obj 103 315 pack 0 5;
#X obj 221 294 expr 1-$f1;
#X text 184 417 GuitarExtended \, Pierre Massat \, 2012;
#X obj 174 134 tgl 15 0 synth_sustain synth_sustain Sustain 17 7 0
10 -232576 -1 -1 1 1;
#X connect 0 0 8 0;
#X connect 1 0 0 1;
#X connect 2 0 0 3;
#X connect 3 0 0 2;
#X connect 4 0 0 5;
#X connect 4 0 14 0;
#X connect 4 0 13 0;
#X connect 5 0 0 0;
#X connect 5 0 9 0;
#X connect 7 0 0 4;
#X connect 8 0 6 0;
#X connect 9 0 6 0;
#X connect 10 0 9 1;
#X connect 11 0 8 1;
#X connect 12 0 10 0;
#X connect 13 0 11 0;
#X connect 14 0 12 0;
#X coords 0 -1 1 1 156 140 2 100 100;
#X restore 63 41 pd GUI;
#X obj 73 231 r synth_weight;
#X floatatom 111 293 5 0 0 0 - - -;
#X floatatom 77 293 5 0 0 0 - - -;
#X text 3 200 processed signal;
#X text 137 200 original signal;
#X obj 159 322 *~;
#X obj 35 322 *~;
#X text 369 132 Parametros podem ser recebidos tanto;
#X obj 253 80 cnv 15 110 100 empty empty empty 20 12 0 14 -260097 -66577
0;
#N canvas 895 23 471 382 cook_MIDI 0;
#X obj 28 48 expr $f1/127.;
#X obj 28 74 s synth_weight;
#X obj 28 150 expr 10.*$f1/127.;
#X obj 28 176 s speed_ctrl;
#X obj 28 125 ctlin 18;
#X obj 306 16 notein;
#X obj 306 42 stripnote;
#X obj 256 73 route 36 37 38 39 40 41 42 43;
#X obj 256 94 tgl 15 0 empty empty empty 17 7 0 10 -232576 -1 -1 1
1;
#X obj 256 173 s synth_sustain;
#X obj 281 194 s portamento;
#X obj 281 94 tgl 15 0 empty empty empty 17 7 0 10 -260097 -1 -1 0
1;
#X obj 306 94 tgl 15 0 empty empty empty 17 7 0 10 -4034 -1 -1 1 1
;
#X obj 306 214 s vibrato;
#X obj 314 314 s reset_all;
#X obj 314 272 s reset_speed_ctrl;
#X obj 314 293 s reset_synth_weight;
#X obj 314 251 s reset_sensitivity;
#X obj 256 114 change;
#X obj 281 134 change;
#X obj 306 153 change;
#X obj 114 221 r synth_sustain;
#X obj 140 242 r portamento;
#X obj 166 264 r vibrato;
#X obj 28 272 bendin;
#X obj 28 322 s bend;
#X obj 28 298 expr ($f1 - 8192)*2/8192.;
#X obj 28 23 ctlin 114;
#X floatatom 121 336 5 0 0 0 - - -;
#X floatatom 189 345 5 0 0 0 - - -;
#X connect 0 0 1 0;
#X connect 2 0 3 0;
#X connect 4 0 2 0;
#X connect 5 0 6 0;
#X connect 5 1 6 1;
#X connect 6 0 7 0;
#X connect 7 0 8 0;
#X connect 7 1 11 0;
#X connect 7 2 12 0;
#X connect 7 4 17 0;
#X connect 7 5 15 0;
#X connect 7 6 16 0;
#X connect 7 7 14 0;
#X connect 8 0 18 0;
#X connect 11 0 19 0;
#X connect 12 0 20 0;
#X connect 18 0 9 0;
#X connect 19 0 10 0;
#X connect 20 0 13 0;
#X connect 21 0 8 0;
#X connect 22 0 11 0;
#X connect 23 0 12 0;
#X connect 24 0 26 0;
#X connect 24 0 28 0;
#X connect 26 0 25 0;
#X connect 26 0 29 0;
#X connect 27 0 0 0;
#X restore 271 158 pd cook_MIDI;
#N canvas 501 23 865 680 cook_OSC 0;
#X obj 18 71 oscparse;
#X obj 18 6 loadbang;
#X obj 18 92 list trim;
#X obj 18 49 netreceive -u -b;
#X obj 40 204 s sensitivity;
#X obj 126 293 s vibrato;
#X obj 149 313 s portamento;
#X obj 18 160 s synth_weight;
#X obj 18 115 route control_GEPS;
#X obj 63 237 * 10;
#X obj 194 355 s synth_sustain;
#X obj 40 181 expr 30 + 40*$f1;
#X obj 63 259 s speed_ctrl;
#X obj 18 136 unpack f f f f f f f;
#X obj 173 334 s synth_on_off;
#X msg 18 27 listen 12000;
#X obj 537 96 route gyrosc;
#X obj 735 141 route gyro;
#X obj 735 165 unpack f f f;
#X floatatom 735 211 5 0 0 0 pitch:_1.5(em_pe)_a_-1.5(ponta-cabeca)
- -;
#X floatatom 775 231 5 0 0 0 yaw:_nao_confiavel... - -;
#X floatatom 816 253 5 0 0 0 roll:_0_a_fabs(3)f - -;
#X obj 351 135 route accel;
#X obj 351 160 unpack f f f;
#X floatatom 351 264 5 0 0 0 lateral - -;
#X floatatom 391 194 5 0 0 0 vertical - -;
#X floatatom 432 291 5 0 0 0 normal - -;
#X floatatom 411 368 5 0 0 0 - - -;
#X floatatom 492 368 5 0 0 0 - - -;
#X obj 649 326 s speed_ctrl;
#X obj 649 301 expr ($f1+0.5)*5.0;
#X obj 649 276 moses -0.5;
#X obj 332 564 s synth_sustain;
#X text 374 61 -- Girsocopio e acelerometro do celular - enviados pelo
app GyrOSC --;
#X obj 351 338 moses 0.9;
#X obj 449 447 timer;
#X obj 481 427 bng 15 250 50 0 empty empty empty 17 7 0 10 -262144
-1 -1;
#X obj 449 427 bng 15 250 50 0 empty empty empty 17 7 0 10 -262144
-1 -1;
#X obj 449 404 t b b;
#X obj 332 447 timer;
#X obj 364 427 bng 15 250 50 0 empty empty empty 17 7 0 10 -262144
-1 -1;
#X obj 332 427 bng 15 250 50 0 empty empty empty 17 7 0 10 -262144
-1 -1;
#X obj 332 404 t b b;
#X obj 449 495 sel 1;
#X obj 332 496 sel 1;
#X obj 332 471 > 1000;
#X obj 449 471 > 1000;
#X obj 449 517 tgl 15 0 empty empty empty 17 7 0 10 -262144 -1 -1 0
1;
#X obj 432 314 abs;
#X obj 449 539 change;
#X obj 449 563 s portamento;
#X text 472 519 nao sei por que estamos precisando do change aqui...
;
#X obj 332 518 tgl 15 0 empty empty empty 17 7 0 10 -262144 -1 -1 0
1;
#X obj 332 540 change;
#X obj 432 338 moses 1.3;
#X obj 17 526 oscparse;
#X obj 17 547 list trim;
#X obj 17 504 netreceive -u -b;
#X obj 73 572 route skeleton;
#X obj 17 597 route head;
#X msg 17 482 listen 56789;
#X floatatom 47 681 5 0 0 0 - - -;
#X floatatom 79 700 5 0 0 0 - - -;
#X text 16 461 Angulo da cabeca \, vindo do Kinect;
#X obj 16 649 unpack s f f f;
#X obj 109 596 route shoulder_center;
#X floatatom 164 681 5 0 0 0 - - -;
#X floatatom 196 700 5 0 0 0 - - -;
#X obj 133 649 unpack s f f f;
#X floatatom 81 799 5 0 0 0 - - -;
#X obj 47 732 expr atan(($f3-$f4)/($f1-$f2));
#X obj 47 753 * 180;
#X obj 47 774 / 3.14159;
#X obj 162 773 expr 0.7*abs($f1)/90.;
#X floatatom 168 808 5 0 0 0 - - -;
#X obj 230 806 s synth_weight;
#X connect 0 0 2 0;
#X connect 1 0 15 0;
#X connect 2 0 8 0;
#X connect 2 0 16 0;
#X connect 3 0 0 0;
#X connect 8 0 13 0;
#X connect 9 0 12 0;
#X connect 11 0 4 0;
#X connect 13 0 7 0;
#X connect 13 1 11 0;
#X connect 13 2 9 0;
#X connect 13 3 5 0;
#X connect 13 4 6 0;
#X connect 13 5 14 0;
#X connect 13 6 10 0;
#X connect 15 0 3 0;
#X connect 16 0 17 0;
#X connect 16 0 22 0;
#X connect 17 0 18 0;
#X connect 18 0 19 0;
#X connect 18 1 20 0;
#X connect 18 2 21 0;
#X connect 19 0 31 0;
#X connect 22 0 23 0;
#X connect 23 0 24 0;
#X connect 23 1 25 0;
#X connect 23 2 26 0;
#X connect 24 0 34 0;
#X connect 26 0 48 0;
#X connect 30 0 29 0;
#X connect 31 1 30 0;
#X connect 34 1 27 0;
#X connect 34 1 42 0;
#X connect 35 0 46 0;
#X connect 36 0 35 1;
#X connect 37 0 35 0;
#X connect 38 0 37 0;
#X connect 38 1 36 0;
#X connect 39 0 45 0;
#X connect 40 0 39 1;
#X connect 41 0 39 0;
#X connect 42 0 41 0;
#X connect 42 1 40 0;
#X connect 43 0 47 0;
#X connect 44 0 52 0;
#X connect 45 0 44 0;
#X connect 46 0 43 0;
#X connect 47 0 49 0;
#X connect 48 0 54 0;
#X connect 49 0 50 0;
#X connect 52 0 53 0;
#X connect 53 0 32 0;
#X connect 54 1 28 0;
#X connect 54 1 38 0;
#X connect 55 0 56 0;
#X connect 56 0 58 0;
#X connect 57 0 55 0;
#X connect 58 0 59 0;
#X connect 58 0 65 0;
#X connect 59 0 64 0;
#X connect 60 0 57 0;
#X connect 61 0 70 0;
#X connect 62 0 70 2;
#X connect 64 1 61 0;
#X connect 64 2 62 0;
#X connect 65 0 68 0;
#X connect 66 0 70 1;
#X connect 67 0 70 3;
#X connect 68 1 66 0;
#X connect 68 2 67 0;
#X connect 69 0 73 0;
#X connect 70 0 71 0;
#X connect 71 0 72 0;
#X connect 72 0 69 0;
#X connect 73 0 74 0;
#X connect 73 0 75 0;
#X restore 277 133 pd cook_OSC;
#N canvas 1128 442 238 261 cook_keypress 0;
#X obj 48 13 keyname;
#X obj 51 52 spigot;
#X obj 51 85 sel v p o s;
#X obj 19 154 s vibrato;
#X obj 43 175 s portamento;
#X obj 87 216 s synth_sustain;
#X obj 66 195 s synth_on_off;
#X obj 111 110 tgl 15 0 empty synth_sustain empty 17 7 0 10 -262144
-1 -1 1 1;
#X obj 69 110 tgl 15 0 empty portamento empty 17 7 0 10 -262144 -1
-1 0 1;
#X obj 48 110 tgl 15 0 empty vibrato empty 17 7 0 10 -262144 -1 -1
1 1;
#X obj 90 110 tgl 15 0 empty synth_on_off empty 17 7 0 10 -262144 -1
-1 1 1;
#X connect 0 0 1 1;
#X connect 0 1 1 0;
#X connect 1 0 2 0;
#X connect 2 0 9 0;
#X connect 2 1 8 0;
#X connect 2 2 10 0;
#X connect 2 3 7 0;
#X connect 7 0 5 0;
#X connect 8 0 4 0;
#X connect 9 0 3 0;
#X connect 10 0 6 0;
#X restore 258 108 pd cook_keypress;
#X text 280 84 Controles;
#X obj 75 495 writesf~ 2;
#X msg 30 470 start;
#X msg 30 493 stop;
#X text 369 148 como MIDI quanto como OSC;
#X msg 30 514 open /Users/brizolara/Documents/teste_GEPS.wav;
#X text 254 359 * GuitarExtended \, Pierre Massat \, 2012;
#N canvas 0 23 500 223 default_parameters 0;
#X obj 7 7 cnv 15 485 209 empty empty Default_parameters 20 12 0 14
-4034 -66577 0;
#X obj 187 74 line;
#X obj 187 33 r reset_sensitivity;
#X msg 187 53 50 10;
#X obj 187 94 s sensitivity;
#X obj 340 74 line;
#X obj 339 162 line;
#X obj 339 121 r reset_speed_ctrl;
#X obj 339 182 s speed_ctrl;
#X obj 340 33 r reset_synth_weight;
#X obj 340 94 s synth_weight;
#X obj 22 32 loadbang;
#X obj 49 65 r reset_all;
#X msg 340 53 0.7 10;
#X msg 339 141 5 10;
#X obj 186 162 line;
#X obj 186 121 r reset_master_vol;
#X msg 22 97 \; reset_synth_weight b \; reset_sensitivity b \; reset_speed_ctrl
b \; reset_master_vol b \; vibrato 1 \; portamento 0 \; synth_on_off
1 \; synth_sustain 0 \; pd dsp 1 \;;
#X msg 186 141 1 10;
#X obj 186 182 s master_vol;
#X connect 1 0 4 0;
#X connect 2 0 3 0;
#X connect 3 0 1 0;
#X connect 5 0 10 0;
#X connect 6 0 8 0;
#X connect 7 0 14 0;
#X connect 9 0 13 0;
#X connect 11 0 17 0;
#X connect 12 0 17 0;
#X connect 13 0 5 0;
#X connect 14 0 6 0;
#X connect 15 0 19 0;
#X connect 16 0 18 0;
#X connect 18 0 15 0;
#X restore 253 42 pd default_parameters;
#X text 369 95 Parameters can be received either;
#X text 370 111 as MIDI or OSC;
#N canvas 1477 335 450 300 wet-dry 0;
#X obj 72 50 expr 1 - $f1;
#X obj 72 92 line;
#X msg 72 71 \$1 10;
#X obj 12 71 line;
#X msg 12 49 \$1 10;
#X obj 35 20 hsl 64 15 0 1 0 0 empty empty empty -2 -8 0 10 -204786
-1 -1 4410 1;
#X obj 12 113 outlet;
#X obj 72 113 outlet;
#X obj 32 2 inlet;
#X connect 0 0 2 0;
#X connect 1 0 7 0;
#X connect 2 0 1 0;
#X connect 3 0 6 0;
#X connect 4 0 3 0;
#X connect 5 0 4 0;
#X connect 5 0 0 0;
#X connect 8 0 5 0;
#X coords 0 -1 1 1 74 32 1 30 6;
#X restore 73 253 pd wet-dry;
#X obj 204 267 vsl 15 128 0 2 0 0 empty empty Volume -10 -9 0 10 -4034
-1 -1 6350 1;
#X obj 159 342 *~;
#X obj 35 342 *~;
#X text 225 386 0;
#X text 225 321 1;
#X text 225 263 2;
#X obj 204 231 r master_vol;
#X text 254 378 * Modified: Tiago Brizolara \, 2017 \; Sustain - retain
last processed sample \; Keypress \, OSC \, MIDI controls \; synth_weight
- dry/wet between clean and processed sound \; Master volume \; and
tons of GUI improvements;
#X text 197 322 ---;
#X connect 0 0 2 0;
#X connect 0 0 8 0;
#X connect 2 0 9 0;
#X connect 3 0 25 0;
#X connect 8 0 27 0;
#X connect 9 0 28 0;
#X connect 17 0 16 0;
#X connect 18 0 16 0;
#X connect 20 0 16 0;
#X connect 25 0 9 1;
#X connect 25 0 5 0;
#X connect 25 1 8 1;
#X connect 25 1 4 0;
#X connect 26 0 27 1;
#X connect 26 0 28 1;
#X connect 27 0 1 1;
#X connect 27 0 1 0;
#X connect 27 0 16 1;
#X connect 27 0 16 0;
#X connect 28 0 1 0;
#X connect 28 0 1 1;
#X connect 28 0 16 0;
#X connect 28 0 16 1;
#X connect 32 0 26 0;
